<svg width="180" height="180" viewBox="0 0 180 180" fill="none" xmlns="http://www.w3.org/2000/svg">
<rect x="36" y="36" width="108" height="109.612" rx="10" fill="#0984E3"/>
<rect x="30.5999" y="71.0758" width="10.8" height="21.9224" fill="#0984E3"/>
<rect x="138.6" y="71.0758" width="10.8" height="21.9224" fill="#0984E3"/>
<rect x="45" y="118.209" width="19.8" height="40.191" rx="6" fill="#0984E3"/>
<rect x="71.9998" y="123.69" width="36" height="14.6149" rx="7.30746" fill="white"/>
<rect x="115.2" y="118.209" width="19.8" height="40.191" rx="6" fill="#0984E3"/>
<rect x="43.2" y="43.3075" width="93.6" height="58.4597" rx="10" fill="white"/>
<ellipse cx="55.7999" cy="130.997" rx="7.2" ry="7.30746" fill="white"/>
<ellipse cx="124.2" cy="130.997" rx="7.20001" ry="7.30746" fill="white"/>
<circle cx="132.12" cy="47.88" r="37.8" fill="#0984E3"/>
<ellipse cx="132.12" cy="47.88" rx="30.6" ry="30.6" fill="white"/>
<rect x="128.34" y="25.2" width="7.55998" height="22.68" fill="#0984E3"/>
<rect x="128.34" y="54.54" width="7.56" height="22.68" transform="rotate(-90 128.34 54.54)" fill="#0984E3"/>
</svg>
